# xmcd
#
# Track frame offsets:
#	150
#	12645
#	25475
#	38860
#	57610
#	68785
#	80713
#	97833
#	113300
#	127365
#	145465
#	158570
#	177353
#	190740
#	206120
#	218233
#	228335
#	243013
#	260023
#	271823
#	285020
#	294683
#
# Disc length: 4077 seconds
#
# Revision: 0
# Processed by: cddbd v1.5.1PL0 Copyright (c) Steve Scherf et al.
# Submitted via: dBpowerAMP V4.0
#
DISCID=460feb16
DTITLE=Gene Watson - Greatest Hits (Curb)
DYEAR=1996
DGENRE=Country
TTITLE0=Got No Reason Now For Goin' Home
TTITLE1=I Don't Need A Thing At All
TTITLE2=One Sided Conversation
TTITLE3=Farewell Party
TTITLE4=Pick The Wildwood Flower
TTITLE5=Should I Come Home
TTITLE6=Nothing Sure Looked Good On You
TTITLE7=Love In The Hot Afternoon
TTITLE8=Where Love Begins
TTITLE9=Paper Rosie
TTITLE10=You Could Know As Much About A Stranger
TTITLE11=The Old Man And His Horn
TTITLE12=Between This Time And The Next Time
TTITLE13=Maybe I Should Have Been Listening
TTITLE14=Fourteen Carat Mind
TTITLE15=Speak Softly ( You're Talking To My Heart )
TTITLE16=This Dream's On Me
TTITLE17=What She Don't Know Won't Hurt Her
TTITLE18=You're Out Doing What I'm Here Doing Without
TTITLE19=Sometimes I Get Lucky And Forget
TTITLE20=Drinkin' My Way Back Home
TTITLE21=Forever Again
EXTD=
EXTT0=
EXTT1=
EXTT2=
EXTT3=
EXTT4=
EXTT5=
EXTT6=
EXTT7=
EXTT8=
EXTT9=
EXTT10=
EXTT11=
EXTT12=
EXTT13=
EXTT14=
EXTT15=
EXTT16=
EXTT17=
EXTT18=
EXTT19=
EXTT20=
EXTT21=
PLAYORDER=
